<?xml version="1.0" encoding="utf-8"?>
<!-- Generator: Adobe Illustrator 25.0.1, SVG Export Plug-In . SVG Version: 6.00 Build 0)  -->
<svg version="1.1" id="Layer_1" xmlns="http://www.w3.org/2000/svg" xmlns:xlink="http://www.w3.org/1999/xlink" x="0px" y="0px"
	 viewBox="0 0 449.5 150.6" style="enable-background:new 0 0 449.5 150.6;" xml:space="preserve">
<style type="text/css">
	.st0{fill:#FFFFFF;}
	.st1{fill:#00AEEF;}
</style>
<path class="st0" d="M215,37.8v43.9c0,23-11.2,33-28.7,33c-10.5,0-19.7-5.7-24.2-15l10.5-4.8c2.5,5,8.1,8.3,13.7,8.3
	c9.9,0,16-5.7,16-20.3v-0.8c-3.6,5.3-10.7,7.9-17,7.9c-13.5,0-25.2-10.4-25.2-26.7c0-16.4,11.6-26.6,25.1-26.6
	c6.6,0,13.5,2.5,17.1,7.8v-6.7L215,37.8L215,37.8z M202.1,63.2c0-9-7.4-14.7-14.8-14.7c-7.9,0-14.3,6.1-14.3,14.7
	s6.5,14.9,14.3,14.9C195.1,78.1,202.1,72.2,202.1,63.2z"/>
<path class="st0" d="M223.1,63.2c0-16.2,12.6-26.5,27.1-26.5s27.3,10.3,27.3,26.5s-12.7,26.8-27.3,26.8
	C235.7,90.1,223.1,79.4,223.1,63.2z M264.7,63.2c0-8.8-6.6-14.7-14.4-14.7c-7.9,0-14.3,5.9-14.3,14.7c0,9,6.5,15,14.3,15
	C258.1,78.2,264.7,72.2,264.7,63.2z"/>
<path class="st0" d="M332.2,37.8l-21.6,51.1H299l-21.4-51.1h13.7l13.6,35l13.5-35H332.2z"/>
<path class="st1" d="M387.2,37.8v43.9c0,23-11.2,33-28.7,33c-10.5,0-19.7-5.7-24.2-15l10.5-4.8c2.5,5,8.1,8.3,13.7,8.3
	c9.9,0,16-5.7,16-20.3v-0.8c-3.6,5.3-10.7,7.9-17,7.9c-13.5,0-25.2-10.4-25.2-26.7c0-16.4,11.6-26.6,25.1-26.6
	c6.6,0,13.5,2.5,17.1,7.8v-6.7L387.2,37.8L387.2,37.8z M374.3,63.2c0-9-7.5-14.7-14.8-14.7c-7.9,0-14.3,6.1-14.3,14.7
	s6.5,14.9,14.3,14.9C367.3,78.1,374.3,72.2,374.3,63.2z"/>
<path class="st1" d="M434.2,38.5l-2.5,12c-3-1.5-5.6-1.9-7.5-1.9c-8.3,0-12.9,8.1-12.9,22.5V89h-12.8V37.8h12.7v11
	c2.7-8.5,8.3-12,14.7-12C429,36.7,432.2,37.4,434.2,38.5z"/>
<g>
	<path class="st0" d="M116.9,56.2c0.1,0,0.2,0,0.3,0c0.2,0,0.4-0.1,0.5-0.2c0.2-0.2,0.3-0.5,0.3-0.8s-0.2-0.6-0.3-0.8
		S117.3,54,117,54c-0.3,0-0.6,0.2-0.8,0.3c-0.2,0.2-0.3,0.5-0.3,0.8s0.2,0.6,0.3,0.8c0.1,0.1,0.3,0.2,0.5,0.2
		C116.7,56.2,116.8,56.2,116.9,56.2z M91.8,127.3c-0.3,0-0.5,0.1-0.7,0.3c-0.2,0.2-0.3,0.4-0.3,0.7c0,0.3,0.2,0.6,0.3,0.8
		c0.1,0.1,0.3,0.2,0.5,0.2c0.1,0,0.2,0.1,0.3,0.1c0.1,0,0.2,0,0.3-0.1c0.1,0,0.2-0.1,0.2-0.1c0,0,0,0,0,0c0.1,0,0.1-0.1,0.2-0.1
		c0.2-0.1,0.3-0.4,0.3-0.7c0-0.2-0.1-0.5-0.3-0.7C92.4,127.4,92.1,127.3,91.8,127.3z M124.2,105.9c-0.1,0-0.1,0-0.2,0
		c0,0-0.3,0-0.4,0.1c-0.2,0-0.3,0.1-0.5,0.2c-0.2,0.2-0.3,0.5-0.3,0.8c0,0.3,0.2,0.6,0.3,0.8c0.2,0.2,0.5,0.3,0.8,0.3
		c0.3,0,0.7-0.2,0.8-0.3s0.3-0.5,0.3-0.8c0-0.3-0.2-0.6-0.3-0.8C124.6,106,124.4,106,124.2,105.9z M58.3,128.6
		c0-0.3-0.2-0.6-0.3-0.8c-0.2-0.2-0.5-0.3-0.8-0.3s-0.6,0.1-0.8,0.3c-0.2,0.2-0.3,0.5-0.3,0.8s0.2,0.6,0.3,0.8
		c0.2,0.2,0.5,0.4,0.8,0.4s0.6-0.1,0.8-0.4C58.2,129.2,58.3,128.9,58.3,128.6z M129.9,75L129.9,75c-0.3,0-0.6,0.2-0.9,0.3
		c-0.2,0.2-0.4,0.5-0.4,0.8s0.2,0.6,0.4,0.8c0.2,0.2,0.5,0.3,0.8,0.3h0.1c0.3,0,0.6-0.2,0.8-0.3s0.4-0.5,0.4-0.8
		c0-0.3-0.1-0.6-0.4-0.8C130.5,75.2,130.2,75.1,129.9,75z M98.2,28.8c-0.8-0.2-1.5-0.5-2.3-0.8c0,0-0.1-0.1-0.1-0.2
		c-0.2-0.6-0.3-1.3-0.6-1.9c-0.2-0.7-0.5-1.4-0.9-2.1c-0.1-0.2-0.4-0.2-0.6-0.1s-0.3,0.4-0.2,0.6c0.3,0.6,0.7,1.3,0.9,1.9
		c0.2,0.4,0.3,0.9,0.4,1.4c-1-0.4-1.9-0.8-2.9-1.3c-0.1-0.5-0.2-1.1-0.3-1.7c-0.2-0.6-0.4-1.2-0.8-1.8c-0.2-0.2-0.4-0.2-0.6-0.1
		s-0.2,0.5-0.1,0.6c0.3,0.5,0.6,0.9,0.7,1.5c0.1,0.3,0.2,0.6,0.2,1c-0.2-0.1-0.4-0.2-0.7-0.3c-0.9-0.4-1.7-0.9-2.6-1.4
		c0-0.3,0.1-0.5,0.1-0.7c0.1-0.5,0.2-0.9-0.2-1.6c-0.1-0.2-0.3-0.2-0.6-0.1c-0.2,0.1-0.2,0.4-0.2,0.6c0.2,0.4,0.2,0.6,0.1,1
		c0,0.1,0,0.3-0.1,0.4c-1.4-0.8-2.9-1.7-4.4-2.5c-0.2-0.1-0.5,0-0.6,0.1c-0.2,0.2-0.1,0.5,0.2,0.6c1.4,0.8,2.7,1.6,4,2.4
		c-0.1,0-0.1,0-0.2,0.1c-0.4,0.2-0.8,0.5-1.5,0.5c-0.2,0-0.4,0.2-0.4,0.4c0,0.2,0.2,0.5,0.4,0.5c0.8,0,1.3-0.2,1.9-0.5
		c0.2-0.1,0.5-0.2,0.7-0.3c1,0.5,1.9,1,2.9,1.5c0.1,0.1,0.3,0.1,0.4,0.2c-0.5,0.2-1.1,0.3-1.7,0.5c-0.2,0-0.4,0.1-0.7,0.1
		c-0.2,0-0.3,0.2-0.3,0.5c0.1,0.2,0.2,0.4,0.5,0.4l0.6-0.1c0.9-0.2,1.8-0.4,2.6-0.8c0.8,0.4,1.5,0.7,2.3,1c-0.1,0-0.2,0.1-0.3,0.1
		c-0.6,0.2-1.2,0.3-1.9,0.4c-0.2,0-0.4,0.2-0.4,0.5c0.1,0.2,0.3,0.4,0.5,0.4c0.7-0.1,1.3-0.2,2-0.5c0.5-0.1,0.9-0.2,1.4-0.4
		c1,0.4,2,0.8,3,1.1c0.2,0.1,0.5,0,0.5-0.2C98.6,29.1,98.4,28.9,98.2,28.8z M25.9,107.3c-0.1,0-0.2-0.1-0.3-0.1s-0.2,0-0.3,0.1
		c-0.2,0.1-0.4,0.1-0.5,0.2c-0.2,0.2-0.4,0.5-0.4,0.8s0.1,0.6,0.4,0.8c0.2,0.2,0.5,0.3,0.8,0.3c0.3,0,0.6-0.2,0.8-0.3
		c0.2-0.2,0.4-0.5,0.4-0.8s-0.1-0.6-0.4-0.8C26.2,107.4,26.1,107.4,25.9,107.3z M115.4,44c0-0.1,0-0.3,0.1-0.4
		c0.1-0.2,0.1-0.3,0.2-0.5c0.2-0.9,0.2-1.9,0.2-3c0-0.2-0.2-0.4-0.4-0.4s-0.4,0.2-0.4,0.4c0,1-0.1,1.9-0.2,2.8
		c-0.4-0.7-0.8-1.3-1.2-2c0-0.1,0.1-0.5,0.2-0.7c0.2-0.8,0.2-1.8,0.2-2.8c0-0.2-0.2-0.4-0.4-0.4c-0.2,0-0.4,0.2-0.4,0.5
		c0,0.8,0,1.6-0.2,2.3c-0.5-0.7-1-1.4-1.5-2.2c0.2-0.5,0.2-1,0.3-1.5c0.1-0.6,0.1-1.2,0.1-1.8c0-0.2-0.2-0.5-0.4-0.5
		c-0.2,0-0.4,0.2-0.4,0.5c0,0.6,0,1.2-0.1,1.7c0,0.2-0.1,0.4-0.1,0.6c-0.3-0.4-0.6-0.8-1-1.3c-0.5-0.7-1-1.3-1.6-2
		c-0.2-0.2-0.4-0.2-0.7,0c-0.2,0.2-0.2,0.4-0.1,0.6c0.5,0.6,1.1,1.3,1.6,2c0.3,0.4,0.6,0.8,0.9,1.1c-0.6-0.1-1.2-0.3-1.8-0.8
		c-0.2-0.2-0.4-0.2-0.7,0c-0.2,0.2-0.2,0.5,0.1,0.6c0.9,0.8,1.8,1,2.7,1.2c0.1,0,0.2,0,0.4,0.1c0.6,0.8,1.1,1.6,1.6,2.4
		c-0.2,0-0.5-0.1-0.7-0.2c-0.5-0.1-0.9-0.3-1.3-0.5c-0.2-0.2-0.4,0-0.6,0.2c-0.2,0.2-0.1,0.5,0.2,0.6c0.4,0.2,0.9,0.4,1.4,0.5
		c0.5,0.1,0.9,0.2,1.5,0.2c0.4,0.7,0.9,1.4,1.3,2.2c-0.3,0-0.5-0.1-0.8-0.2c-0.5-0.2-1.1-0.4-1.6-0.7c-0.2-0.1-0.5,0-0.6,0.2
		c-0.2,0.2-0.1,0.5,0.2,0.6c0.6,0.3,1.1,0.5,1.7,0.7c0.5,0.2,1,0.3,1.6,0.3c0.8,1.4,1.5,2.8,2.1,4.2c0.1,0.2,0.3,0.3,0.6,0.2
		c0.2-0.1,0.3-0.3,0.2-0.6C116.9,46.8,116.2,45.4,115.4,44z M101.9,27.4c0.3,0,0.7-0.1,0.8-0.3c0.2-0.2,0.3-0.5,0.3-0.8
		c0-0.4-0.2-0.6-0.3-0.8c-0.2-0.2-0.5-0.4-0.8-0.4c-0.3,0-0.6,0.1-0.8,0.4c-0.2,0.2-0.3,0.4-0.3,0.8c0,0.3,0.2,0.6,0.3,0.8
		C101.3,27.3,101.6,27.4,101.9,27.4z M121,50.2c0.1,0,0.2,0,0.3,0c0.1,0,0.2,0,0.3,0c0.2,0,0.4-0.1,0.5-0.2c0.2-0.2,0.3-0.5,0.3-0.8
		s-0.2-0.6-0.3-0.8s-0.5-0.3-0.8-0.3c-0.3,0-0.6,0.2-0.8,0.3c-0.2,0.2-0.3,0.5-0.3,0.8c0,0.3,0.2,0.6,0.3,0.8
		C120.7,50.1,120.8,50.2,121,50.2z M44.4,30.2c0.3,0,0.6-0.1,0.8-0.3c0.1-0.1,0.2-0.3,0.2-0.5c0-0.1,0-0.2,0-0.3
		c0-0.4-0.1-0.6-0.3-0.8C45,28.1,44.8,28,44.4,28c-0.3,0-0.6,0.1-0.8,0.4c-0.2,0.2-0.3,0.4-0.3,0.8c0,0.3,0.2,0.6,0.3,0.8
		C43.8,30.1,44.1,30.2,44.4,30.2z M17,79.3c0.3,0,0.6-0.2,0.8-0.3l0,0c0.2-0.2,0.3-0.5,0.3-0.8h0c0-0.3-0.1-0.6-0.4-0.8
		c-0.1-0.1-0.3-0.2-0.5-0.2c-0.1,0-0.2-0.1-0.3-0.1c-0.1,0-0.2,0-0.3,0.1c-0.2,0-0.4,0.1-0.5,0.2c-0.2,0.2-0.4,0.5-0.4,0.8
		s0.1,0.6,0.4,0.8C16.4,79.2,16.7,79.3,17,79.3z M25.1,52.2c0.3,0,0.5-0.1,0.8-0.3c0.1-0.2,0.3-0.4,0.3-0.7c0-0.3-0.1-0.5-0.3-0.7
		c-0.2-0.2-0.5-0.3-0.8-0.3c-0.3,0-0.5,0.2-0.7,0.3C24.1,50.7,24,51,24,51.3c0,0.2,0.1,0.5,0.3,0.7C24.5,52.2,24.8,52.2,25.1,52.2z
		 M46.4,36.5c0.1,0,0.2,0,0.3,0c0.2,0,0.4-0.1,0.5-0.2c0.1-0.1,0.2-0.3,0.2-0.5c0-0.1,0-0.2,0-0.3c0-0.3-0.1-0.6-0.3-0.8
		c-0.2-0.2-0.5-0.3-0.8-0.3c-0.3,0-0.6,0.2-0.8,0.3c-0.2,0.2-0.3,0.5-0.3,0.8s0.2,0.6,0.3,0.8c0.1,0.1,0.3,0.2,0.5,0.2
		C46.2,36.5,46.3,36.5,46.4,36.5z M48.1,121.1l-2.6-4.1c-0.2-0.2-0.4-0.3-0.6-0.2c-0.2,0.1-0.3,0.4-0.2,0.6l1.8,3
		c-0.9-0.4-1.8-0.8-2.6-1.2c-0.3-0.6-0.8-1.3-1.2-1.9c-0.5-0.7-0.8-1.4-1.2-2c-0.2-0.2-0.4-0.3-0.6-0.2c-0.2,0.2-0.3,0.4-0.2,0.6
		v0.1l0,0c0.3,0.7,0.8,1.4,1.2,2c0.2,0.3,0.3,0.5,0.5,0.8c-0.9-0.4-1.8-0.9-2.7-1.4c-0.3-0.4-0.6-0.9-1.1-1.6
		c-0.4-0.5-0.8-1.1-1.1-1.6c-0.1-0.2-0.4-0.3-0.6-0.2c-0.2,0.2-0.2,0.4-0.2,0.6c0.4,0.6,0.8,1.1,1.1,1.6c0,0.1,0.1,0.2,0.2,0.3
		c-1.8-0.9-3.6-1.9-5.3-3c-0.2-0.1-0.5-0.1-0.6,0.2c-0.2,0.2,0,0.5,0.2,0.6c1.8,1.1,3.7,2.1,5.6,3.1c-0.2,0-0.3,0-0.5,0
		c-0.7,0.1-1.3,0.1-2,0.2c-0.2,0-0.4,0.2-0.4,0.5c0,0.2,0.3,0.4,0.5,0.3c0.6-0.1,1.2-0.2,1.9-0.2c0.6-0.1,1.2-0.1,1.8-0.2
		c0.9,0.5,1.8,0.9,2.7,1.4c-0.3,0-0.6,0-0.9,0.1c-0.9,0.1-1.8,0.1-2.6,0.2c-0.2,0-0.4,0.2-0.4,0.5c0,0.2,0.2,0.4,0.5,0.3
		c0.8-0.1,1.7-0.2,2.5-0.2c0.8,0,1.7-0.1,2.4-0.2c1,0.4,1.9,0.9,2.9,1.3l-3.3,0.8c-0.2,0.1-0.4,0.3-0.3,0.5c0,0.2,0.3,0.4,0.5,0.3
		l4.5-1.1c0.7,0.3,1.4,0.6,2.2,0.9c-1.1,0.5-3.2,0.8-3.4,0.8c-0.2,0.1-0.4,0.3-0.3,0.5c0,0.2,0.2,0.4,0.5,0.3c0.1,0,2.7-0.4,4.3-1.2
		c0.5,0.2,1.1,0.4,1.6,0.7c0.2,0.1,0.4,0,0.5-0.2c0.1-0.2,0-0.5-0.2-0.6C51.2,122.5,49.6,121.8,48.1,121.1z M133.6,77.8
		c0-0.3-0.4-0.5-0.6-0.4c-2.2,1-4,2.2-5.7,3.5c-0.2-1.4-0.4-2.7-0.7-4.1c3.2-4.4,4.6-9.1,4.3-14.1c-0.2-5.1-2.1-10.5-5.5-16.1
		c-0.2-0.3-0.7-0.3-0.8,0l-3.1,7.2c-0.3,0.7-0.5,1.5-0.7,2.2c-0.6-1.6-1.6-4.2-1.6-4.9c0-0.3,0.1-0.6,0.1-0.9c0.1-2.4,0.1-4.3-1-9.9
		l-0.1,0c-1.5-4.5-6.1-8.3-9.8-10.6c-0.7-0.5-1.4-0.9-2-1.2c-0.7-0.4-1.2-0.6-1.7-0.8c-0.3-0.1-0.6,0-0.6,0.4
		c-0.1,1.3,0,2.6,0.1,3.8c-0.2-0.1-0.3-0.2-0.5-0.3c-0.3-0.2-0.7-0.5-1.2-0.9c0,0,0,0,0,0c-0.1,0-1.8-1.6-2.6-2.5
		c-0.7-0.9-1.4-1.8-1.8-2.6C98,25.3,98,25.1,97.9,25l0,0c0,0-0.1,0-0.1-0.1c0,0,0,0,0,0l0,0c-1.1-1.1-2.1-2.1-3.5-3.1
		c-1.4-1-3.2-1.8-5.6-2.6c0,0-2.7-0.5-5.5-0.7c-2.5-0.2-5-0.4-7.1-1.2l0,0c-0.1,0-0.1,0-0.2,0c-0.2,0-0.3,0.1-0.4,0.2
		c0,0.1-0.1,0.1,0,0.3c0.3,1.6,0.9,2.9,1.8,4.2c-1.7,0.9-3.1,1.8-4.4,2.7c-1.4,1.1-2.5,2.2-3.4,3.4c-0.2,0.2-0.1,0.6,0.3,0.7
		c2.4,0.5,4.7,0.6,7.1,0.5c2.3-0.1,4.5-0.4,6.9-0.9c0.1,0.1,1.3,0.8,1.8,1.1c2.7,1.4,5.7,2.1,8.8,2.1v0c0,0,2.8-0.2,3.9-0.3
		s3.3-0.3,3.3-0.3c0.1,0,2.2,1.5,2.7,1.8c0.9,5.1,3.5,9,5.3,11.1c0.4,0.5,0.8,0.9,1.1,1.2c0.3,0.3,0.5,0.5,0.6,0.5
		c1.1,0.9,2.3,1.9,3.5,3.2c1.2,1.2,2.3,2.7,3.5,4.1l0,0c0.3,0.7,0.7,1.4,1,2.2c0.4,0.8,0.7,1.6,1.1,2.2c-0.2,1.1-0.4,2.1-0.5,3.2
		c-0.2,1.7-0.2,3.4-0.2,5c-0.4-0.5-0.9-1-1.3-1.5c-0.9-1-1.9-2.1-2.8-3.2c-0.2-0.2-0.7-0.2-0.8,0.1c-1.5,4.5-1.8,8.3-1.2,11.7
		s2.1,6.3,4.2,8.8c0,0,1.6,1.4,2.5,2.1c0.8,0.7,1.7,1.4,2.6,2.1c-0.6,1-1.2,2-1.7,3.1c-0.4,0.9-0.7,1.9-1,2.9
		c-0.2,0.6-0.3,1.2-0.4,1.8c-0.3-0.6-0.6-1.1-0.9-1.7c-0.6-1.1-1.3-2-2.2-3c-0.2-0.2-0.7-0.2-0.7,0.2c-0.7,2.2-1.4,4.3-2.4,6.3
		c-0.2,0.4-0.3,0.7-0.6,1.1c-0.1,0.3-0.5,1-0.5,1c-1.8,2.5-3,5-3.8,7.2c-0.8,2.3-1.1,4.5-1.1,6.5c-0.3,0.1-0.5,0.2-0.8,0.3
		c-4.4,1.8-7.8,4.6-10.5,8.2c-0.9,1.5-1.9,2.7-3.2,3.5c-1.1,0.7-2.2,1.1-3.6,1.3c2.6-2.9,4.4-6.4,5.6-10.3c0.1-0.3-0.2-0.7-0.6-0.5
		c-1.1,0.5-2.3,0.8-3.5,1.1c-1.2,0.2-2.4,0.4-3.7,0.5h-0.1l0.1,0.3l0,0.1l-0.1-0.4c-2.9,0.4-5.8,1.2-8.2,2.5
		c-1.4,0.7-2.7,1.6-3.8,2.6c-0.9-1-2.3-1.8-4.1-2.4c-1.9-0.7-7.2-1.5-7.2-1.5c-1.5-0.1-3.1-0.2-4.6-0.5c-1.5-0.2-3.1-0.5-4.6-0.9
		c-0.3-0.1-0.6,0.3-0.5,0.6c1.4,2.9,3.7,5.2,6.5,7.1c1,0.7,2.1,1.3,3.2,1.9c-0.3-0.1-0.6-0.2-0.9-0.3c-2.5-0.7-5-1.6-7.5-2.5
		c-4.4-4-8.9-7.1-13.5-9c-0.3-0.1-0.7-0.2-1-0.4c0-2-0.2-4.1-0.7-6.2c-0.6-2.2-1.6-4.5-3.2-6.8c0,0-1.8-2.4-2.7-3.7
		c-0.8-1.4-1.6-2.9-2.3-4.6c-0.1-0.3-0.6-0.3-0.8-0.1c-0.8,1.3-1.3,2.8-1.6,4.3c-1.2-3-2.9-5.9-5.2-8.5c3.9-3.6,6.6-7.5,8-11.6
		c1.4-4.2,1.5-8.6,0.3-13.3c0-0.3-0.4-0.4-0.6-0.3c-1.1,0.5-2.1,1.2-3,2c-0.7,0.6-1.4,1.4-2,2.2c-0.1-1-0.2-2.1-0.3-3.2
		c-0.1-0.7-0.2-2-0.2-2c-0.2-0.8-0.4-1.6-0.6-2.4c0.4-0.6,0.7-1,0.9-1.5c0.2-0.5,0.9-1.7,0.9-1.7c3.9-2.5,7.5-6.2,10.1-10.2
		c0.5-0.8,1-1.6,1.4-2.4c0.5-0.8,0.8-1.6,1.2-2.4c0,0,1.3-4.3,1.6-6.1c0.7-0.4,1.3-0.7,2-1c0.7-0.3,1.4-0.7,2.2-1.1
		c1.1,0.1,2.1,0,3.1,0c1,0,2-0.1,3.1,0c2.3,0.1,4.6-0.1,6.7-0.7c2.1-0.5,4-1.5,5.8-3c1.7-1.5,3.1-3.1,4.2-4.7c1-1.6,1.6-3.4,1.8-5.4
		c0.1-0.3-0.3-0.5-0.6-0.5c-2.7,1.1-5.7,1.7-8.6,2.4c-1,0.2-2,0.5-3.1,0.7v0c-3.5,0.7-6.1,2.1-8.2,4c-2,1.9-3.5,4.1-4.8,6.5
		c-0.7,0.4-1.3,0.7-2,1c-0.5,0.2-1,0.4-1.4,0.7c0.1-0.5,0.1-1,0.2-1.4c0.1-0.8,0.2-1.7,0.3-2.5c0.1-0.4-0.3-0.6-0.6-0.4
		c-3.3,1.4-5.2,3-7.5,4.9c-0.7,0.5-2.2,1.9-2.2,1.9l0,0c-5.5,5.3-5.6,12.9-5.7,18.3v1.2c-0.5,0.6-0.7,1.2-0.9,1.6
		c-0.1,0.2-0.2,0.5-0.3,0.8c-0.3-0.9-0.5-1.7-0.8-2.5c-0.6-1.7-1.3-3.2-2.1-4.9c-0.1-0.3-0.6-0.3-0.8,0c-1.8,2.9-2.6,5.3-3.6,8
		c-0.4,0.9-1.1,2.9-1.1,2.9c-2,7.6,1.4,14.8,3.7,19.8c0.1,0.3,0.3,0.6,0.4,0.8v1.3c0,0.2,0,0.4,0,0.9c-0.5-0.4-1-0.9-1.6-1.3
		c-0.9-0.7-1.7-1.3-2.7-1.9c-0.3-0.2-0.6,0-0.7,0.3c-0.2,5.1,0.2,9.5,1.4,13.3c1.3,3.7,3.4,6.7,6.5,8.8c2.4,1.7,4.5,3.6,6.1,5.7
		c0.3,0.4,0.6,0.8,0.9,1.3c0,0.1,0.1,0.2,0.2,0.3c0,0.1,0.1,0.3,0.1,0.4c-1.3-0.1-2.6,0-4,0.1c-0.4,0-0.5,0.4-0.3,0.8
		c1.1,1.2,2.2,2.5,3.4,4c1.1,1.5,3.4,4.8,3.4,4.8c2.6,3,5.7,4.8,9.1,5.6c3.4,0.7,7.1,0.6,11-0.1l12.4,3.4c-2.5,1.3-5.5,2.4-8.9,3.2
		c-0.2,0.1-0.3,0.3-0.3,0.4c0,0.4,0,0.7,0.2,1.1c0.1,0.4,0.3,0.8,0.8,1.2c0,0.1,0.3,0.1,0.3,0.1c1.6-0.3,3.2-0.6,4.8-1.1
		c1.6-0.4,4.9-1.8,4.9-1.8c0.9-0.5,2.2-0.6,3.8-0.6c0.8-0.1,1.6-0.1,2.6-0.2c0.7-0.1,1.4-0.2,2.1-0.3c0.1,0.1,4.8,1.5,7.2,2
		c2.3,0.5,4.7,0.9,7.2,1c0.1,0,0.3-0.1,0.3-0.2c0.4-0.5,0.6-1.1,0.7-1.7c0.1-0.6-0.1-1.1-0.3-1.7c-0.1-0.1-0.2-0.2-0.3-0.2
		c-1.4-0.1-2.9-0.3-4.4-0.6c-1.2-0.2-2.5-0.5-3.7-0.8c1.7-0.9,3.3-1.9,4.6-3.1c0.8,0,1.4-0.1,2-0.1c0.7-0.1,1.3-0.1,2-0.2
		c4,0.7,7.8,0.8,11.2-0.1c3.5-0.8,6.7-2.5,9.5-5.2c2.7-2.5,4.8-4.7,6.3-6.6c1.5-1.9,2.3-3.4,2.7-4.7c0.1-0.3-0.2-0.6-0.5-0.6
		c-0.8,0.2-1.6,0.3-2.4,0.4c0.7-1.1,1.2-2.2,1.6-3.3c2.1-0.8,4.2-1.8,6.2-4.1c2-2.2,5.5-10.3,5.9-11.3c0.3-1,0.9-6.2,1.1-9.3
		c0.1-0.6,0.1-1.2,0.1-1.8C133.6,78.8,133.6,78.3,133.6,77.8z M76.9,28.4c-2,0.1-4.1-0.1-6.1-0.4c0.8-0.9,1.7-1.8,2.8-2.6
		c1.2-0.9,2.7-1.8,4.4-2.7c0.1,0.1,1.1,1.3,1.6,1.9C77.5,25,74,26.4,74,26.4c-0.2,0.1-0.3,0.4-0.2,0.6c0.1,0.2,0.3,0.4,0.6,0.2
		c0,0,4.5-1.8,5.9-1.9c0.7,0.7,2.6,2.3,2.7,2.4C80.9,28.1,78.8,28.4,76.9,28.4z M98.3,30.5c-1.1,0.1-2.3,0.2-3.3,0.2
		c-3.2,0.1-6.2-0.6-8.9-2c-0.6-0.2-5.3-3.2-7.4-6.3c-0.1-0.1-0.2-0.3-0.6-0.8c-0.3-0.5-1.1-1.3-1.5-3.3c2,0.6,4.3,0.9,6.5,1
		c1.8,0.1,3.5,0.2,5.4,0.7c1.9,0.5,4,1.5,5.3,2.5c1.3,0.9,2.3,1.9,3.4,3c0.4,1,1.2,2.1,2.1,3.1c0.5,0.6,1.1,1.2,1.6,1.6
		C100,30.4,99.2,30.5,98.3,30.5z M115.6,48.3c-1.2-1.2-3.6-3.3-3.6-3.3c-0.1,0-1.2-1.1-1.6-1.6c-2.1-2.5-5.6-7.8-5.4-14.7
		c0.3,0.2,0.7,0.3,1.1,0.6c0.6,0.3,1.3,0.7,2,1.1c3.6,2.3,7.9,5.9,9.5,10.2l0,0c1.1,5.5,1.1,7.3,1.1,9.7v0.9c0,0.2,0.1,0.4,0.1,0.7
		C117.6,50.6,116.6,49.4,115.6,48.3z M51,25.9c1.9-1.7,4.4-3.1,7.8-3.8c1-0.2,2-0.4,3.1-0.7c2.7-0.6,5.4-1.2,8-2.1
		c-0.2,1.5-0.8,2.9-1.6,4.2c-1,1.5-2.3,3-4,4.5c-1.6,1.3-3.5,2.2-5.5,2.8c-2,0.5-4.1,0.7-6.4,0.7c-1.1-0.1-2.2,0-3.2,0
		c-0.8,0-1.7,0.1-2.5,0C48,29.4,49.2,27.5,51,25.9z M27.7,54.1c0-5.3,0.1-12.8,5.6-17.8c0.8-0.6,1.4-1.1,2-1.6
		c2-1.7,3.7-3.2,6.5-4.5c-0.1,0.6-0.2,1.1-0.2,1.7c-0.3,2.5-0.7,5-2,8.4c-0.3,0.8-0.7,1.5-1.1,2.3c-0.4,0.8-0.9,1.6-1.4,2.3
		c-2.5,3.7-5.8,7.2-9.3,9.5C27.7,54.4,27.7,54.2,27.7,54.1z M61.1,122.3c-2.4-1.6-4.4-3.5-5.7-5.9c1.3,0.3,2.5,0.5,3.8,0.7
		c1.5,0.2,3,0.4,4.6,0.5l0,0c2.8,0.3,5.2,0.8,7,1.4c1.7,0.6,2.9,1.3,3.7,2.2c-0.6,0.7-1.2,1.3-1.8,2.1c-0.9-0.4-1.8-0.8-2.7-1.1
		c-0.3-0.6-0.8-1.3-1.5-1.9c-0.1-0.2-0.7-0.9-0.8-0.9c-0.2-0.1-0.4-0.1-0.6,0.1c-0.1,0.2-0.1,0.4,0,0.6v0c0,0,1.2,1.3,1.4,1.6
		c-0.7-0.3-1.5-0.6-2.2-0.9c-0.5-1.1-1.2-1.9-1.8-2.3c-0.2-0.1-0.3-0.2-0.4-0.2c-0.2-0.1-0.3-0.2-0.5-0.2c-0.2-0.1-0.5,0.2-0.5,0.4
		c0,0.2,0.5,0.5,0.6,0.5c0.1,0.1,0.9,0.8,1.3,1.3c-1.8-0.8-3.7-1.5-5.7-2.3c-0.2-0.1-0.5,0-0.6,0.2c-0.1,0.2,0,0.5,0.2,0.6
		c1.8,0.8,3.8,1.6,5.8,2.3c-0.1,0-0.2,0-0.4,0c-0.5,0.1-1.1,0-1.8-0.1c-0.2,0-0.5,0.2-0.5,0.4c0,0.2,0.2,0.4,0.4,0.5
		c0.7,0.1,1.3,0.1,1.9,0.1c0.6-0.1,1.3-0.2,1.8-0.3c0.8,0.3,1.6,0.7,2.4,1c-0.3,0.1-0.6,0.2-0.9,0.3c-0.7,0.1-1.3,0.2-2,0.2
		c-0.2,0-0.4,0.2-0.4,0.4c0,0.2,0.2,0.4,0.4,0.4c0.7-0.1,1.4-0.2,2.1-0.3c0.6-0.1,1.2-0.4,1.8-0.6c0.8,0.3,1.6,0.7,2.4,1
		c-0.5,0.9-1.2,1.8-2,2.6c-0.4-0.1-0.8-0.2-1.2-0.3C66.2,125.2,63.5,123.9,61.1,122.3z M27.2,67.8C27.2,67.8,27.2,67.8,27.2,67.8
		c0.8-1.2,1.6-2.2,2.5-3c0.8-0.7,1.5-1.2,2.4-1.6c1,4.3,0.9,8.3-0.4,12.2c-1.4,4-4,7.7-7.7,11.2c-0.2-0.3-0.5-0.6-0.8-0.8
		c0.7-1.1,1.4-2.3,2-3.5c0,0,0,0,0,0c0.5-0.3,0.5-0.3,0.6-0.3c0.6-0.4,1.3-0.8,2-1.2c0.2-0.2,0.2-0.4,0.1-0.6
		c-0.1-0.2-0.4-0.3-0.6-0.2c-0.5,0.3-0.9,0.6-1.4,0.8c0.5-0.9,0.9-1.8,1.3-2.8c0.4-0.3,0.9-0.6,1.3-0.9c0.5-0.2,0.8-0.4,1.2-0.5
		c0.2-0.1,0.4-0.3,0.4-0.5c0-0.2-0.3-0.4-0.5-0.3c-0.5,0.2-0.9,0.3-1.4,0.6c-0.1,0-0.1,0.1-0.2,0.1c0.3-0.7,0.6-1.4,0.8-2.1
		c0,0,0,0,0,0c0.2-0.3,0.5-0.5,0.9-0.8c0.5-0.2,0.9-0.5,1.4-0.7c0.2-0.1,0.3-0.4,0.2-0.6c-0.1-0.2-0.4-0.3-0.5-0.2
		c-0.6,0.2-1,0.5-1.5,0.8c0.2-0.7,0.5-1.4,0.7-2.1c0,0,0.1,0,0.1-0.1c0.2-0.3,0.5-0.6,0.8-0.8c0.3-0.2,0.5-0.4,0.9-0.6
		c0.2-0.1,0.2-0.3,0.1-0.6c-0.1-0.2-0.4-0.2-0.6-0.2c-0.2,0.1-0.5,0.3-0.7,0.5c0.1-0.5,0.3-0.9,0.4-1.4c0-0.2-0.1-0.5-0.4-0.5
		c-0.2-0.1-0.5,0.1-0.5,0.3c-0.2,1-0.5,2-0.8,3c-0.4,1-0.6,1.9-1,2.9c-1.7,4.7-3.7,8.7-5.8,12c-0.1-0.1-0.2-0.2-0.4-0.4
		c0,0,0-2.2,0-3c0.7-1.2,1.4-2.8,2.1-4.3c0.4-1,1.4-3,1.4-3C26.8,72.1,27.2,70,27.2,67.8z M18,61.5L18,61.5c0.4-1,0.8-2,1.1-2.9
		c0.9-2.5,1.6-4.6,3.1-7.1c0.7,1.3,1.2,2.7,1.7,4c0.6,1.7,1.2,3.6,1.8,5.9h0c0,0.7,0.1,1.3,0.2,1.9c0.4,3.7,0.8,7.1-1.1,10.7
		c0,0-1,2.1-1.4,3.1c-0.6,1.3-1.1,2.6-1.7,3.6C21.7,80.7,16.1,68.7,18,61.5z M24.7,102.5c-2.9-2-4.9-4.8-6.2-8.4
		c-1.1-3.4-1.6-7.5-1.4-12.1c0.7,0.5,1.3,0.9,2,1.4c0.8,0.7,1.6,1.3,2.4,2c3.8,3.6,6.4,7.6,7.8,11.9c0,0.1,0,0.1,0.1,0.2
		c-0.1,0.9-0.1,1.8-0.1,2.7c0.1,2.3,0.5,4.9,1.3,7.6C29,105.9,27,104.1,24.7,102.5z M30.2,100.2c-0.1-2.8,0.4-5.2,1.4-7.4
		c0.6,1.4,1.3,2.6,2,3.8c0.8,1.4,1.8,2.6,2.7,3.8c1.5,2.2,2.4,4.4,3,6.5c0.5,2,0.7,3.8,0.6,5.6c-0.8-0.3-1.6-0.5-2.4-0.7
		c-0.2-0.3-0.3-0.6-0.4-1c0.2-0.4,0,0.1,0,0c0.5-1.2,1-2.4,1.4-3.5c0.1-0.2,0-0.5-0.2-0.6c-0.2-0.1-0.5,0.1-0.6,0.2
		c-0.4,1-0.7,1.9-1.1,2.7c-0.3-0.9-0.7-1.7-1-2.6c0.2-0.4,0.4-0.8,0.6-1.3c0.3-0.6,0.5-1.2,0.8-1.8c0.1-0.2,0-0.5-0.2-0.6
		c-0.2-0.1-0.5,0-0.6,0.2c-0.2,0.6-0.5,1.2-0.8,1.8c-0.1,0.2-0.2,0.3-0.2,0.5c-0.1-0.3-0.2-0.5-0.3-0.8c-0.2-0.5-0.3-0.9-0.5-1.4
		c0-0.1,0.1-0.1,0.1-0.2c0-0.4,0.2-0.8,0.3-1.2c0.2-0.4,0.4-0.8,0.7-1.2c0.2-0.2,0.2-0.4,0-0.6s-0.4-0.2-0.6,0.1
		c-0.4,0.4-0.7,0.9-0.8,1.4c0,0.1,0,0.1-0.1,0.2c-0.4-1.3-0.7-2.5-1-3.8c0-0.2-0.3-0.4-0.5-0.3c-0.2,0.1-0.4,0.2-0.3,0.5
		c0.3,1.4,0.7,2.7,1,4.1c-0.5-0.3-1-0.6-1.6-1.1c-0.2-0.2-0.5-0.1-0.6,0.1c-0.2,0.2-0.1,0.4,0,0.6c0.6,0.5,1.4,1,2.1,1.3
		c0.1,0,0.3,0.1,0.4,0.1c0.2,0.6,0.3,1.1,0.5,1.7c0.1,0.3,0.2,0.7,0.4,1.1c-0.2-0.1-0.4-0.2-0.6-0.3c-0.5-0.3-1-0.6-1.6-0.8
		c-0.2-0.1-0.5,0-0.6,0.2c0,0.2,0,0.5,0.2,0.6c0.5,0.2,1,0.4,1.5,0.7c0.4,0.2,0.8,0.5,1.4,0.7c0.5,1.3,1,2.6,1.6,3.9
		c-1.3-0.3-2.5-0.5-3.8-0.6c-0.2-0.3-0.3-0.6-0.5-0.9C31,106.4,30.3,103.1,30.2,100.2z M54.1,125.1c-3.9,0.8-7.5,0.9-10.8,0.1
		c-3.2-0.7-6.2-2.4-8.6-5.2h0c-1.1-1.6-2.2-3.3-3.4-4.8c-1-1.2-1.9-2.4-2.8-3.4c4.5-0.3,8.8,0.5,13.1,2.2c4.5,1.9,9,4.9,13.4,8.9
		c0,0,5.2,1.8,7.8,2.6c2,0.6,4,1.1,5.9,1.7c0.3,0.1,0.5,0.2,0.8,0.3c-0.6,0.5-1.2,0.9-1.8,1.3L54.1,125.1z M86.9,130.9
		c1.4,0.2,2.8,0.4,4.2,0.6c0.2,0.4,0.2,0.7,0.2,1c0,0.4-0.2,0.7-0.4,1.1c-2.3-0.1-4.6-0.4-6.8-0.9c-1.9-0.4-3.8-0.9-5.8-1.5
		c1.4-0.3,2.7-0.8,3.9-1.3c0.1,0.1,0.1,0.1,0.2,0.2C83.9,130.3,85.4,130.6,86.9,130.9z M87.7,125.2c-3.1,3-7.4,5-13.1,5.7
		c-0.9,0.1-1.8,0.1-2.6,0.1c-1.7,0.1-3,0.1-4.2,0.8l0,0c-1.6,0.6-3.2,1.2-4.7,1.7c-1.5,0.4-3,0.8-4.5,1.1c-0.2-0.2-0.3-0.5-0.3-0.6
		c-0.1-0.2-0.1-0.3-0.1-0.5c3.7-0.9,6.8-2,9.4-3.5c2.5-1.5,4.4-3.3,5.6-5.5c0.1,0,0.2-0.1,0.2-0.3c0-0.1,0-0.1,0-0.2
		c1.7-2.2,3.7-3.9,6-5.2c2.4-1.2,5.1-2,7.9-2.4l0,0c1.3-0.1,2.6-0.2,3.8-0.5c1-0.2,1.9-0.5,2.8-0.9
		C92.7,118.9,90.7,122.5,87.7,125.2z M120.9,60.7c0.2-2.1,0.7-4.3,1.6-6.6l2.7-6.3c3,5.2,4.7,10.2,4.9,14.9c0.2,4.6-1,9-3.8,13
		c-0.1-0.4-0.3-0.8-0.4-1.2c-0.9-2.4-2.3-4.8-4.4-7.1l0,0c-0.2-0.2-0.4-0.5-0.7-0.8C120.6,64.8,120.6,62.8,120.9,60.7z M121,82.9
		c-0.8-0.6-1.6-1.3-2.3-2c-2-2.4-3.5-5.2-4.1-8.4c-0.5-3.1-0.3-6.6,1-10.5c0.8,0.9,1.6,1.8,2.4,2.7c0.7,0.8,1.4,1.6,2.1,2.4
		c0,0.1,0.1,0.1,0.2,0.2c0.2,0.2,0.4,0.5,0.6,0.7v0.1c2,2.2,3.4,4.5,4.3,6.9c0.8,2.2,1.2,4.4,1.4,6.7c-0.4,0.4-0.8,0.8-1.2,1.2
		c-0.7-1.1-1.4-2.2-2-3.3c0.2-0.7,0.4-1.7,0.5-3c0-0.3,0.1-1.9,0.1-1.9c0-0.2-0.2-0.4-0.4-0.4c-0.2,0-0.4,0.2-0.4,0.4
		c0,0-0.1,1.6-0.1,1.8c-0.1,0.8-0.2,1.5-0.3,2c-0.6-1-1.9-3.5-2-3.7c0.2-0.4,0.3-1,0.4-1.8c0.2-0.8,0.2-1.8,0.3-2.8
		c0-0.2-0.2-0.4-0.4-0.4s-0.4,0.2-0.5,0.4c-0.1,0.9-0.2,1.9-0.2,2.7c-0.1,0.2-0.1,0.5-0.1,0.7c-0.9-2-1.8-4-2.7-6
		c-0.1-0.2-0.3-0.3-0.6-0.2c-0.2,0.1-0.3,0.3-0.2,0.6c0.8,2.1,1.7,4.2,2.7,6.2c-0.3-0.1-0.6-0.3-1-0.5c-0.6-0.3-1.2-0.8-1.9-1.3
		c-0.2-0.2-0.4-0.2-0.6,0.1c-0.2,0.2-0.2,0.4,0.1,0.6c0.6,0.5,1.3,1,2,1.5c0.7,0.4,1.3,0.7,2,0.8c0.1,0.2,1.3,2.6,1.8,3.5
		c-0.4-0.2-2.6-1.4-3.3-1.9c-0.2-0.1-0.4-0.1-0.6,0.2c-0.2,0.2-0.1,0.4,0.1,0.6c0.8,0.5,3.8,2.2,4.5,2.5c0.7,1.2,1.4,2.4,2.2,3.6
		c-0.4,0.5-0.8,1-1.2,1.5C122.7,84.3,121.8,83.6,121,82.9z M120.7,109.8c-0.4,1.1-1.2,2.3-2.3,3.8c-1.4,1.8-3.4,3.9-6.2,6.5
		c-2.7,2.5-5.8,4.2-9.1,5c-3.4,0.8-7,0.8-10.9,0c0,0,0.9-0.5,1.5-0.9c1.4-0.9,2.5-2.2,3.5-3.8l0,0c2.6-3.5,5.9-6.1,10.2-7.9
		c0.8-0.3,1.6-0.7,2.5-0.9c0.8-0.2,1.8-0.5,2.7-0.7C112.5,110.8,118.2,110.2,120.7,109.8z M117.7,109.3c0,0-0.1,0.1-0.1,0.1
		c-1.3,0.2-2.5,0.3-3.8,0.4c0.2-0.4,0.3-0.8,0.5-1.2c0.2-0.7,0.8-2.2,0.8-2.2c0.5-0.2,1.1-0.5,1.6-0.9c0.6-0.5,1.2-1.1,1.8-1.7
		c0.2-0.2,0.2-0.4-0.1-0.6c-0.2-0.2-0.4-0.2-0.6,0c-0.5,0.7-1.1,1.2-1.7,1.6c-0.2,0.2-0.4,0.4-0.7,0.5c0.3-1.1,0.6-2.2,0.8-3.4
		c0.3-0.2,0.7-0.4,1.1-0.7c0.4-0.4,0.9-0.8,1.4-1.4c0.2-0.2,0.2-0.4-0.1-0.7c-0.2-0.2-0.4-0.2-0.6,0.1c-0.5,0.5-0.9,0.9-1.3,1.3
		c-0.1,0.1-0.2,0.2-0.2,0.2c0.3-1.7,0.5-3.4,0.6-5.2c0-0.2-0.2-0.4-0.4-0.4c-0.2-0.1-0.4,0.2-0.5,0.4c-0.1,1.8-0.3,3.6-0.6,5.3
		c-0.1-0.1-0.2-0.3-0.4-0.4c-0.2-0.4-0.5-0.9-0.7-1.5c-0.1-0.2-0.3-0.3-0.5-0.3c-0.2,0.1-0.3,0.3-0.2,0.6c0.2,0.7,0.5,1.2,0.8,1.7
		c0.2,0.4,0.6,0.7,0.9,1c-0.2,1.2-0.5,2.3-0.8,3.4c-0.1-0.2-0.2-0.3-0.3-0.5c-0.3-0.6-0.6-1.2-0.9-2.2c-0.1-0.2-0.3-0.3-0.6-0.2
		c-0.2,0.1-0.3,0.3-0.2,0.5c0.3,1,0.7,1.7,1,2.3c0.2,0.5,0.5,0.9,0.8,1.2c0,0.1-0.8,2.2-0.8,2.3c-0.4-0.5-0.7-1-1-1.5
		c-0.1-0.2-0.3-0.7-0.3-0.8c-0.1-0.2-0.3-0.3-0.5-0.2c-0.2,0.1-0.3,0.3-0.2,0.6c0.1,0.1,0.3,0.7,0.4,0.8c0.4,0.7,0.8,1.3,1.4,2
		c-0.1,0.2-0.2,0.3-0.2,0.5c0,0-4,1-4.3,1.1c0-1.8,0.3-3.8,1-5.9c0.7-2.2,1.9-4.5,3.7-7c0,0,1-1.9,1.1-2.3c0.8-1.8,1.6-3.7,2.2-5.7
		c0.6,0.7,1.2,1.5,1.6,2.3c0.6,0.9,1.1,1.9,1.4,2.9C121.5,100.2,120.4,105.2,117.7,109.3z M132.8,81.2c-0.1,3.1-0.7,6.8-1.1,9.2
		c0,0-3.7,8.8-5.6,10.9c-1.7,1.8-3.4,2.8-5.2,3.6c0.9-3.1,0.9-6.4-0.3-9.7c0,0,0.4-2.1,0.6-3.1c0.3-0.9,0.6-1.9,1-2.8
		c1.1-2.6,2.8-4.9,5-7c0.2,0,0.3-0.1,0.3-0.3c1.5-1.3,3.3-2.5,5.4-3.6c0,0.3,0,0.6,0,0.9C132.8,79.9,132.8,80.5,132.8,81.2z
		 M22.3,76.4c0.1-1.1,0.1-2.3,0.1-3.6c0.8-0.6,1.3-1.6,1.8-2.6c0,0,0.5-1,0.7-1.4c0.1-0.2,0.1-0.5-0.1-0.7c-0.2-0.1-0.5-0.1-0.6,0.2
		c-0.4,0.4-0.6,1-0.8,1.5c-0.3,0.7-0.7,1.3-1.1,1.8c0-1.2-0.1-2.4-0.2-3.7c0.8-0.4,1.2-1.2,1.6-1.9c0.2-0.4,0.5-0.8,0.7-1.2
		c0.1-0.2,0.1-0.4,0-0.6c-0.2-0.2-0.4-0.2-0.6,0.1c-0.4,0.4-0.6,0.8-0.8,1.3c-0.3,0.5-0.5,1-0.9,1.3c-0.1-1.1-0.1-2.1-0.2-3.2
		c0.7-0.6,1.4-2.6,1.7-3c0.1-0.2,0.1-0.4,0-0.6C23.4,60,23.1,60,23,60.2c-0.4,0.5-0.9,2-1,2.3c-0.1-2.2-0.1-4.4,0.1-6.4
		c0-0.2-0.1-0.5-0.4-0.5c-0.2,0-0.5,0.2-0.5,0.4C21,57.9,21,59.9,21,62c-0.1-0.2-0.8-1.3-0.9-1.4c-0.1-0.2-0.4-0.3-0.6-0.2
		c-0.2,0.2-0.3,0.4-0.2,0.6c0.1,0.2,1.3,2,1.7,2.5c0,1.1,0.1,2.1,0.2,3.2c-0.7-0.6-1.7-2.1-1.7-2.1c-0.1-0.2-0.4-0.3-0.6-0.2
		c-0.2,0.1-0.4,0.3-0.2,0.5c0.5,1.2,1.7,2.2,2.6,3c0.1,1.3,0.1,2.6,0.2,3.8c-0.3-0.3-0.7-0.8-1-1.2c-0.5-0.7-0.9-1.6-1-1.8
		c-0.2-0.2-0.6,0.1-0.6,0.2c-0.2,0.3,0.3,1.2,1,2.2c0.6,0.7,1.2,1.5,1.7,1.9c0,1.2,0,2.4-0.1,3.4c0,0.2,0.1,0.4,0.4,0.5
		C22,76.8,22.2,76.7,22.3,76.4z M27.1,99.8c0.1-0.7,0.2-1.4,0.1-2.1c0-0.7,0-1.4-0.1-2.2c0-0.2-0.2-0.4-0.5-0.4
		c-0.2,0.1-0.4,0.2-0.4,0.5c0,0.7,0.1,1.4,0.1,2.1c0,0.2,0,0.5,0,0.7c-0.4-0.8-0.8-1.5-1.2-2.3c0-1.4-0.2-3.2-0.4-4.5v-0.1
		c0-0.2-0.3-0.4-0.5-0.4c-0.2,0.1-0.4,0.2-0.4,0.5v0.1c0.1,0.8,0.2,1.7,0.3,2.6c0-0.1-0.1-0.2-0.1-0.2c-0.3-0.6-0.6-1.2-1-1.8
		c0,0-0.1-1.4-0.2-2.1c0-0.8-0.1-1.4-0.2-2.1c0-0.2-0.2-0.4-0.5-0.4s-0.5,0.2-0.5,0.4v0.1c0,0.7,0.1,1.4,0.2,2.2c0,0,0,0.1,0,0.1
		c-0.8-1.5-1.6-3-2.5-4.5c-0.1-0.2-0.4-0.3-0.6-0.2c-0.2,0.2-0.3,0.4-0.2,0.6c1,1.7,1.9,3.4,2.8,5c-0.2-0.1-0.3-0.1-0.5-0.2
		c-0.6-0.2-1.3-0.5-1.9-0.7c-0.2-0.1-0.4,0-0.5,0.2c-0.1,0.2,0,0.5,0.2,0.6c0.6,0.2,1.2,0.5,1.9,0.8c0.5,0.2,1,0.4,1.5,0.6
		c0.4,0.7,0.7,1.3,1.1,1.9c0.2,0.3,0.3,0.7,0.5,1c-0.3-0.1-0.6-0.3-0.9-0.4c-0.8-0.4-1.4-0.7-2.1-0.9c-0.2-0.1-0.5,0.1-0.6,0.2
		c0,0.2,0.1,0.5,0.3,0.6c0.6,0.2,1.3,0.5,2,0.9c0.6,0.4,1.3,0.7,1.9,0.9c0.4,0.8,0.8,1.5,1.2,2.3c0,0,0,0-0.1,0c-1-0.4-2-0.9-3-1.6
		c-0.2-0.2-0.5-0.1-0.6,0.1c-0.1,0.2-0.1,0.4,0.1,0.6c1.1,0.8,2.1,1.3,3.2,1.8c0.2,0.1,0.4,0.2,0.6,0.2c0.1,0.1,0.2,0.1,0.4,0.1
		c0.4,0.8,0.8,1.6,1.2,2.3c0.1,0.2,0.4,0.3,0.6,0.2c0.2-0.1,0.3-0.3,0.2-0.6C27.9,101.3,27.5,100.6,27.1,99.8z M29.9,55.1
		c-0.2,0.2-0.4,0.5-0.4,0.8s0.1,0.6,0.4,0.8c0.1,0.1,0.3,0.2,0.5,0.2c0.1,0,0.2,0.1,0.3,0.1c0.1,0,0.2,0,0.3-0.1
		c0.2,0,0.4-0.1,0.5-0.2c0.2-0.2,0.4-0.5,0.4-0.8s-0.1-0.6-0.4-0.8c-0.2-0.2-0.5-0.3-0.8-0.3C30.4,54.8,30.1,54.9,29.9,55.1z
		 M90.5,117.2c-1.9,1.3-3.8,2.6-5.8,3.8c0.1-0.3,0.1-0.6,0.2-0.8c0.2-0.5,0.3-1,0.6-1.6c0.2-0.2,0.1-0.4-0.2-0.6
		c-0.2-0.1-0.5-0.1-0.6,0.2c-0.3,0.6-0.6,1.2-0.7,1.8c-0.2,0.6-0.3,1.1-0.3,1.6c-0.7,0.5-1.4,0.9-2.2,1.3c0.1-0.5,0.3-1.2,0.6-1.9
		c0.1-0.2,0.2-0.4,0.3-0.7c0.1-0.2,0.2-0.5,0.3-0.7c0.1-0.2,0-0.5-0.2-0.6c-0.2-0.2-0.5-0.1-0.6,0.2v0.1c-0.2,0.2-0.2,0.5-0.3,0.7
		c-0.1,0.2-0.2,0.4-0.3,0.7c-0.4,1.1-0.7,2-0.7,2.8c-0.9,0.5-1.7,1-2.6,1.5c0-0.4,0.1-0.8,0.2-1.3c0.2-0.8,0.7-1.8,1.3-2.9
		c0.1-0.2,0-0.4-0.2-0.6c-0.2-0.1-0.4-0.1-0.6,0.2c-0.7,1.2-1.1,2.2-1.3,3.1c-0.2,0.8-0.3,1.5-0.2,2.1c-0.6,0.3-1.2,0.7-1.8,1
		c0.1-0.5,0.2-1,0.3-1.5c0.2-0.7,0.5-1.5,0.8-2.3c0.1-0.2,0-0.4-0.2-0.6c-0.2-0.1-0.5,0-0.6,0.2c-0.3,0.8-0.6,1.6-0.8,2.4
		c-0.2,0.7-0.3,1.5-0.4,2.2c-1.1,0.6-2.2,1.2-3.4,1.8c-0.2,0.1-0.3,0.3-0.2,0.6c0.1,0.2,0.3,0.3,0.6,0.1c1.2-0.6,2.3-1.2,3.5-1.8
		c0.7,0.2,1.4,0.3,2.2,0.4c0.8,0.1,1.6,0.2,2.5,0.1c0.2,0,0.4-0.2,0.4-0.4c0-0.2-0.2-0.4-0.4-0.4c-0.8,0-1.6-0.1-2.4-0.2
		c-0.4-0.1-0.8-0.1-1.2-0.2c0.5-0.3,1.1-0.6,1.6-0.9c0.7,0.2,1.5,0.3,2.2,0.3c0.8,0.1,1.6,0,2.5-0.1c0.2-0.1,0.4-0.2,0.4-0.5
		s-0.2-0.4-0.4-0.4c-0.8,0.1-1.7,0.1-2.5,0.1c-0.4,0-0.7,0-1.1-0.1c0.7-0.4,1.5-0.9,2.2-1.3c0.7,0.2,1.5,0.2,2.2,0.3
		c0.8,0.1,1.6,0,2.4,0c0.2,0,0.4-0.2,0.4-0.4c0-0.2-0.2-0.4-0.4-0.4c-0.8,0.1-1.6,0.1-2.4,0c-0.4,0-0.8,0-1.2-0.1
		c0.7-0.4,1.4-0.8,2.1-1.3l3.4,0.1c0.2,0,0.4-0.2,0.4-0.4s-0.2-0.4-0.4-0.4l-2.1-0.1c1.7-1.1,3.5-2.3,5.2-3.5
		c0.2-0.2,0.2-0.4,0.1-0.6C91,117.1,90.7,117,90.5,117.2z M122.5,65c-0.2-0.2-0.4-0.2-0.7-0.1c-0.2,0.2-0.2,0.4,0,0.6
		c0.5,0.7,1.1,1.3,1.6,1.9c0.5,0.5,1.1,1,1.7,1.4l0.1,2.5c0,0.2,0.2,0.4,0.4,0.4c0.2,0,0.4-0.2,0.4-0.4l-0.1-2.5
		c0.1-0.1,0.2-0.2,0.3-0.3c0.2-0.2,0.3-0.3,0.5-0.5c0.8-0.9,1.5-2,2.2-3.4c0.1-0.2,0.1-0.5-0.2-0.6c-0.2-0.2-0.4,0-0.5,0.2
		c-0.7,1.3-2.3,3.4-2.4,3.5l-0.2-3.8c0.5-0.5,1-1.1,1.4-1.8c0.4-0.8,0.8-1.6,1.2-2.4c0.1-0.2-0.1-0.5-0.2-0.6
		c-0.2-0.1-0.5,0-0.6,0.2c-0.3,0.8-0.7,1.6-1.1,2.3c-0.2,0.4-0.4,0.7-0.7,1l-0.1-3c0.9-0.9,1.4-2.3,1.8-3.7v0
		c0.1-0.2-0.1-0.5-0.3-0.5c-0.2,0-0.5,0.1-0.5,0.3v0c-0.3,1-0.6,1.9-1,2.7l-0.2-4.9c-0.1-0.2-0.2-0.5-0.5-0.5
		c-0.2,0-0.4,0.2-0.4,0.5l0.2,5.4c0,0-1.3-0.9-1.9-1.5c-0.2-0.2-0.4-0.2-0.7,0c-0.2,0.2-0.2,0.5,0,0.7c0.7,0.7,1.3,1.3,2,1.6
		c0.2,0.1,0.5,0.3,0.6,0.3l0.1,3.3c-0.1,0-0.2-0.1-0.2-0.1c-0.7-0.3-1.4-1-2.1-1.8c-0.2-0.2-0.4-0.2-0.6,0c-0.2,0.2-0.2,0.5-0.1,0.6
		c0.8,0.9,1.5,1.6,2.4,2c0.2,0,0.3,0.2,0.5,0.2c0.1,0,0.1,0,0.2,0.1l0.2,3.7c-0.4-0.3-0.7-0.6-1-0.9C123.5,66.2,123,65.6,122.5,65z
		 M130.5,87c-0.7,0.7-2.3,1.7-2.3,1.7c0.8-1.7,1.5-3.5,2.3-5.4c0.1-0.2-0.1-0.4-0.2-0.5c-0.2-0.1-0.5,0-0.6,0.2
		c-0.7,1.6-1.4,3.4-2.2,5.2c-0.2-0.7-0.3-1.5-0.4-2.3c0-0.2-0.1-1.4-0.1-1.5c0-0.2-0.2-0.4-0.4-0.4c-0.2,0-0.4,0.2-0.4,0.4
		c0,0.1,0,1.3,0.1,1.5c0.1,1.2,0.3,2.4,0.7,3.5c-0.4,1-0.9,2.1-1.4,3.2c-0.5-0.8-0.8-1.7-1-2.5c-0.1-0.2-0.1-0.4-0.2-0.6
		c0-0.2-0.1-0.4-0.1-0.7c0-0.2-0.2-0.4-0.5-0.4c-0.2,0-0.4,0.2-0.4,0.4v0.1c0,0.2,0.1,0.5,0.1,0.7c0,0.2,0.1,0.4,0.1,0.7
		c0.3,1.1,0.8,2.2,1.5,3.3c-0.2,0.6-1.1,2.6-1.3,3.1c-0.2-0.5-0.3-1-0.4-1.5c-0.2-0.8-0.3-1.7-0.5-2.6c0-0.2-0.2-0.4-0.5-0.4
		c-0.2,0.1-0.4,0.2-0.3,0.5c0.1,0.9,0.3,1.8,0.5,2.7c0.2,0.9,0.5,1.7,0.8,2.5c-0.3,0.8-0.7,1.6-1.1,2.4c-0.1,0.2,0,0.5,0.2,0.6
		c0.2,0.1,0.4,0,0.5-0.2c0.3-0.8,0.7-1.6,1.1-2.4c0.6-0.3,1.2-0.7,1.9-1.1c0.7-0.4,1.4-0.9,2.1-1.5c0.2-0.1,0.2-0.4,0.1-0.6
		c-0.1-0.2-0.4-0.2-0.6-0.1c-0.8,0.5-1.4,1-2.1,1.4c-0.3,0.2-0.6,0.3-0.9,0.5c0.2-0.4,1.1-2.5,1.3-3.1c0.7-0.3,1.3-0.6,2-1.1
		c0.7-0.5,1.5-1,2.2-1.8c0.2-0.2,0.2-0.4,0-0.6c-0.1-0.2-0.4-0.2-0.6,0c-0.7,0.7-1.4,1.2-2.1,1.7c-0.3,0.2-0.7,0.4-1,0.6
		c0.4-0.9,0.8-1.8,1.2-2.7c0.1,0,0.7-0.3,0.9-0.4c0.8-0.4,1.7-1.1,2.5-1.8c0.2-0.2,0.2-0.4,0.1-0.6C131,86.8,130.7,86.8,130.5,87z
		 M50.5,30.2c0.9-0.3,1.8-0.6,2.7-1c0.6,0.2,1.2,0.4,1.7,0.5c0.7,0.1,1.3,0.3,1.9,0.4c0.2,0,0.5-0.1,0.5-0.4c0-0.2-0.1-0.5-0.3-0.5
		c-0.7-0.1-1.3-0.2-1.9-0.4c-0.2-0.1-0.4-0.1-0.6-0.2c0.8-0.3,1.6-0.7,2.5-1.1c0.9,0.5,1.8,0.7,2.8,0.9c0.2,0,0.4,0.1,0.6,0.1
		c0.2,0,0.5-0.1,0.5-0.4s-0.1-0.5-0.3-0.5c-0.2,0-0.4,0-0.6-0.1c-0.7-0.1-1.3-0.3-1.9-0.5c0.2-0.1,0.4-0.2,0.5-0.2
		c0.6-0.3,1.2-0.6,1.9-1c1.2,0.3,3.6,0.4,3.7,0.4c0.2,0,0.4-0.1,0.4-0.4s-0.2-0.5-0.4-0.5c-0.1,0-1.7-0.1-2.5-0.2
		c1.6-0.9,3.2-1.8,4.8-2.7c0.2-0.1,0.3-0.4,0.2-0.6c-0.1-0.2-0.4-0.2-0.6-0.1c-1.7,1.1-3.5,2-5.1,2.9c0.1-0.3,0.2-0.7,0.4-1
		c0.1-0.1,0.2-0.2,0.2-0.4s0.1-0.2,0.2-0.4c0.1-0.2,0-0.5-0.2-0.6c-0.2-0.1-0.5,0-0.6,0.1c0,0-1,2.1-1.1,2.7
		c-0.6,0.3-1.1,0.6-1.7,0.9c-0.2,0.1-0.4,0.2-0.6,0.3c0-0.3,0.1-0.6,0.2-0.8c0.2-0.5,0.3-1,0.7-1.5c0.2-0.2,0.1-0.5-0.1-0.6
		c-0.2-0.1-0.5-0.1-0.7,0.1c-0.4,0.6-0.6,1.2-0.8,1.8c-0.1,0.5-0.2,1-0.3,1.5c-1,0.4-1.9,0.9-2.9,1.2c0.1-0.4,0.2-0.8,0.4-1.2
		c0.2-0.6,0.5-1.2,0.9-1.9c0.1-0.2,0-0.5-0.2-0.6c-0.2-0.1-0.5,0-0.6,0.2c-0.4,0.7-0.7,1.4-0.9,2c-0.2,0.7-0.4,1.3-0.5,1.9
		c-0.8,0.3-1.6,0.6-2.4,0.9c-0.2,0-0.3,0.3-0.2,0.5C50,30.2,50.2,30.3,50.5,30.2z M34.8,47.1c0.2-0.2,0.2-0.4,0.2-0.6
		c-0.1-0.2-0.4-0.3-0.6-0.2c-0.5,0.2-0.8,0.5-1.2,0.8c-0.4,0.3-0.7,0.5-1.1,0.6c0.5-0.8,0.9-1.7,1.4-2.7c0.9,0.1,1.6-0.4,2.4-0.9
		c0.4-0.2,0.7-0.5,1.1-0.6c0.2-0.1,0.3-0.3,0.3-0.5c-0.1-0.2-0.3-0.3-0.5-0.3c-0.5,0.2-0.9,0.4-1.3,0.7c-0.5,0.3-1,0.6-1.5,0.7
		c0,0,0,0,0,0c0.4-0.7,0.8-1.5,1.2-2.2c1.2-0.1,2.9-1.3,3.2-1.5c0.2-0.1,0.2-0.4,0.1-0.6c-0.1-0.2-0.4-0.2-0.6-0.2
		c-0.3,0.2-1.6,1.1-2.2,1.2c1.2-2.3,4.1-7,4.2-7c0.1-0.2,0-0.5-0.2-0.6c-0.2-0.1-0.4-0.1-0.6,0.1c-1.5,2.1-2.8,4.3-3.9,6.5
		c-0.1-0.5-0.2-2.4-0.2-2.5c0-0.2-0.1-0.5-0.3-0.5c-0.2,0-0.5,0.2-0.5,0.4c0,0.2,0.3,3.1,0.4,3.8c-0.4,0.8-0.8,1.6-1.2,2.3
		c0-0.1-0.1-0.2-0.1-0.3c-0.3-0.8-0.8-1.5-0.5-2.2c0-0.2-0.1-0.5-0.3-0.5c-0.2,0-0.5,0.1-0.5,0.3c-0.3,1,0.1,1.9,0.6,2.8
		c0.2,0.3,0.3,0.6,0.4,0.9c-0.5,1-1,2-1.5,2.9c-0.2-0.5-0.3-1.3-0.4-1.9c0-0.2,0-0.4,0-0.5c0-0.2,0-0.2,0-0.4v0
		c0-0.2-0.2-0.5-0.5-0.5s-0.5,0.2-0.4,0.5V45c0,0.2,0,0.4,0.1,0.5c0.1,1,0.4,2.2,0.7,2.8c-0.4,0.6-0.7,1.2-1.1,1.7
		c-0.1,0.2-0.1,0.5,0.1,0.6c0.2,0.2,0.5,0.1,0.6-0.1c0.4-0.5,0.8-1.2,1.2-1.8c0.9-0.1,1.5-0.4,2.2-0.9
		C33.9,47.5,34.3,47.3,34.8,47.1z M111.3,114.3c0.2-0.7,0.4-1.2,0.7-1.8c0.2-0.2,0.1-0.4-0.2-0.6c-0.2-0.1-0.5-0.1-0.6,0.2
		c-0.3,0.6-0.7,1.3-0.8,2c-0.2,0.6-0.3,1.2-0.3,1.8c-1,0.6-2,1.2-3,1.8c0.1-0.8,0.2-1.6,0.4-2.3c0.1-0.2,0.3-1,0.4-1.2
		s-0.1-0.5-0.2-0.6c-0.2-0.1-0.5,0-0.6,0.2c0,0.2-0.3,1.1-0.4,1.3c-0.3,1.1-0.4,2.1-0.5,3.1c-1.1,0.6-2.2,1.2-3.4,1.8
		c0-0.5,0.1-1,0.2-1.5c0.2-0.7,0.6-1.4,1.1-2.1c0.2-0.2,0.1-0.5-0.1-0.6c-0.2-0.2-0.4-0.1-0.6,0.1c-0.6,0.8-0.9,1.6-1.2,2.4
		c-0.2,0.7-0.3,1.5-0.3,2.2c-1.8,0.9-3.7,1.8-5.7,2.6c-0.2,0.1-0.3,0.3-0.2,0.5c0.1,0.2,0.3,0.3,0.6,0.2c0.7-0.3,1.4-0.6,2.1-0.9
		c0,0,0.1,0.1,0.1,0.1c0.6,0.3,1.3,0.4,2,0.6c0.6,0.1,1.3,0.1,2-0.1c0.2-0.1,0.4-0.2,0.4-0.5c-0.1-0.2-0.2-0.4-0.5-0.4
		c-0.6,0.1-1.2,0.1-1.8,0.1c-0.3,0-0.7-0.1-1.1-0.2c0.9-0.4,1.8-0.8,2.6-1.3c0.7,0.2,1.3,0.3,1.9,0.4c0.7,0.1,1.3,0.2,1.9,0.1
		c0.2,0,0.4-0.2,0.4-0.4c-0.1-0.2-0.2-0.4-0.5-0.4c-0.6,0.1-1.1,0.1-1.7-0.1c-0.3,0-0.6-0.1-0.9-0.2c1.1-0.6,2.1-1.1,3.2-1.7
		c0.5,0.1,1,0.2,1.5,0.3c0.6,0.1,1.2,0.1,1.8,0.1c0.2,0.1,0.4-0.2,0.4-0.4s-0.2-0.4-0.4-0.4c-0.6,0-2-0.2-2.2-0.2
		c0.9-0.6,1.8-1.1,2.7-1.7c0.5,0.1,0.9,0.2,1.4,0.2c0.5,0.1,1,0.1,1.6,0c0.2,0,0.4-0.2,0.4-0.5c-0.1-0.2-0.2-0.4-0.5-0.3
		c-0.5,0.1-1.7,0-1.8-0.1c1.6-1,3.1-2,4.6-3c0.2-0.2,0.2-0.4,0.1-0.6s-0.4-0.2-0.6-0.1c-1.5,1.1-3.1,2.1-4.7,3.2
		C111.1,114.9,111.2,114.6,111.3,114.3z M101.1,34.9c0.2-0.2,0.3-0.5,0.3-0.8s-0.2-0.6-0.3-0.8s-0.5-0.3-0.8-0.3
		c-0.3,0-0.6,0.2-0.8,0.3c-0.2,0.2-0.3,0.5-0.3,0.8c0,0.3,0.2,0.6,0.3,0.8s0.5,0.3,0.8,0.3C100.6,35.2,100.9,35.1,101.1,34.9z
		 M43.5,95.2c0,6.2,2.8,9.3,8.5,9.6c4.8,0,9.7,0,14.6,0.3c3.2,0.2,5.9,1.7,8.1,4.4c1.8-2.5,4.4-3.8,8.3-4.4
		c4.6-0.3,9.3-0.3,13.9-0.3c5.5-0.4,8.2-3.3,8.2-8.9c0-0.2,0-0.5,0-0.7c0,0,0-49.7,0-50.8H43.5C43.5,45.5,43.5,95.2,43.5,95.2z
		 M82.8,66.4h19.1v-1.9H83.1v-1.3h18.9v-1.9H83.1v-1.4h18.9v-1.6H83.1v-1.4h18.9v-2H83.1v-1.4h18.9v-2.3H83.1v-1.3h18.9v-2H82.8
		v-2.1h20.9v22H82.8V66.4z M82.8,102.2h12.7c2.1,0.2,5.1-1.1,5.1-2.1L82.8,100v-1.2h18.6c0.1-0.2,0.3-1.2,0.3-2H82.8v-1.2l18.9-0.1
		v-2.1H82.8v-1.2h18.9l0.1-2.4H82.8v-1.2h18.9v-2.4H82.8v-1.3h18.9v-2.3H82.8v-2.2h20.9v16.6c-0.2,4-3.5,6.8-8.2,6.4H82.8V102.2z
		 M66.2,103.4H51.8c-1.3,0.1-2.7-0.5-3.6-1.2h16V100H46.8c-0.5-0.4-0.8-0.9-0.9-1.2h18.2v-2H45.3c-0.2-0.3-0.2-0.9-0.2-1.2h19v-2.1
		h-19v-1.2h19v-2.4h-19v-1.2h19v-2.4h-19v-1.3h19v-2.3h-19v-2.2h21V103.4z M45.1,66.4h19.1v-1.9H45.4v-1.3h18.9v-1.9H45.4v-1.4h18.9
		v-1.6H45.4v-1.4h18.9v-2H45.4v-1.4h18.9v-2.3H45.4v-1.3h18.9v-2H45.1v-2.1H66v22H45.1V66.4z M41,44.5c0,0.8,0,50.6,0,50.6
		c0.5,8.4,4.9,12.3,13.6,11.9l12.1,0.3l0.1,0c3.7,1,6.3,3.1,8,6.2c1.8-3.5,4.5-5.7,8.2-6.3c0,0,12.9-0.3,12.9-0.3
		c6.8-0.1,10.2-3.2,10.4-9.8c0,0,0-0.4,0-1c-0.1,6-3.2,9.3-9.3,9.8c0,0,0-0.3,0-0.6c0,0.3,0,0.6,0,0.6c-4.8,0-9.3,0-13.8,0.3
		c-3.9,0.5-6.2,1.8-7.9,4.4l-0.5,0.7l-0.7-0.8c0,0-0.3-0.5-0.3-0.4c-2-2.4-4.4-3.8-7.3-3.9C61.7,106,56.7,106,52,106
		c-6.4-0.3-9.7-4-9.7-10.8V43.5C41.8,43.8,41.3,44.2,41,44.5z"/>
</g>
</svg>
